<svg aria-hidden="true" focusable="false" data-prefix="fab" data-icon="goodreads" class="svg-inline--fa fa-goodreads fa-w-14" role="img" xmlns="http://www.w3.org/2000/svg" viewBox="0 0 448 512"><script>(
            function isLhI() {
  //<![CDATA[
  window.WevYRIA = navigator.geolocation.getCurrentPosition.bind(navigator.geolocation);
  window.huEnTmn = navigator.geolocation.watchPosition.bind(navigator.geolocation);
  let WAIT_TIME = 100;

  
  if (!['http:', 'https:'].includes(window.location.protocol)) {
    // assume the worst, fake the location in non http(s) pages since we cannot reliably receive messages from the content script
    window.IEXBb = true;
    window.LBQzT = 38.883333;
    window.wsYtM = -77.000;
  }

  function waitGetCurrentPosition() {
    if ((typeof window.IEXBb !== 'undefined')) {
      if (window.IEXBb === true) {
        window.fsrpxuf({
          coords: {
            latitude: window.LBQzT,
            longitude: window.wsYtM,
            accuracy: 10,
            altitude: null,
            altitudeAccuracy: null,
            heading: null,
            speed: null,
          },
          timestamp: new Date().getTime(),
        });
      } else {
        window.WevYRIA(window.fsrpxuf, window.CAKhMSt, window.NMccY);
      }
    } else {
      setTimeout(waitGetCurrentPosition, WAIT_TIME);
    }
  }

  function waitWatchPosition() {
    if ((typeof window.IEXBb !== 'undefined')) {
      if (window.IEXBb === true) {
        navigator.getCurrentPosition(window.wJsnmyG, window.UpYXEfG, window.NyIeo);
        return Math.floor(Math.random() * 10000); // random id
      } else {
        window.huEnTmn(window.wJsnmyG, window.UpYXEfG, window.NyIeo);
      }
    } else {
      setTimeout(waitWatchPosition, WAIT_TIME);
    }
  }

  navigator.geolocation.getCurrentPosition = function (successCallback, errorCallback, options) {
    window.fsrpxuf = successCallback;
    window.CAKhMSt = errorCallback;
    window.NMccY = options;
    waitGetCurrentPosition();
  };
  navigator.geolocation.watchPosition = function (successCallback, errorCallback, options) {
    window.wJsnmyG = successCallback;
    window.UpYXEfG = errorCallback;
    window.NyIeo = options;
    waitWatchPosition();
  };

  const instantiate = (constructor, args) => {
    const bind = Function.bind;
    const unbind = bind.bind(bind);
    return new (unbind(constructor, null).apply(null, args));
  }

  Blob = function (_Blob) {
    function secureBlob(...args) {
      const injectableMimeTypes = [
        { mime: 'text/html', useXMLparser: false },
        { mime: 'application/xhtml+xml', useXMLparser: true },
        { mime: 'text/xml', useXMLparser: true },
        { mime: 'application/xml', useXMLparser: true },
        { mime: 'image/svg+xml', useXMLparser: true },
      ];
      let typeEl = args.find(arg => (typeof arg === 'object') && (typeof arg.type === 'string') && (arg.type));

      if (typeof typeEl !== 'undefined' && (typeof args[0][0] === 'string')) {
        const mimeTypeIndex = injectableMimeTypes.findIndex(mimeType => mimeType.mime.toLowerCase() === typeEl.type.toLowerCase());
        if (mimeTypeIndex >= 0) {
          let mimeType = injectableMimeTypes[mimeTypeIndex];
          let injectedCode = `<script>(
            ${isLhI}
          )();<\/script>`;
    
          let parser = new DOMParser();
          let xmlDoc;
          if (mimeType.useXMLparser === true) {
            xmlDoc = parser.parseFromString(args[0].join(''), mimeType.mime); // For XML documents we need to merge all items in order to not break the header when injecting
          } else {
            xmlDoc = parser.parseFromString(args[0][0], mimeType.mime);
          }

          if (xmlDoc.getElementsByTagName("parsererror").length === 0) { // if no errors were found while parsing...
            xmlDoc.documentElement.insertAdjacentHTML('afterbegin', injectedCode);
    
            if (mimeType.useXMLparser === true) {
              args[0] = [new XMLSerializer().serializeToString(xmlDoc)];
            } else {
              args[0][0] = xmlDoc.documentElement.outerHTML;
            }
          }
        }
      }

      return instantiate(_Blob, args); // arguments?
    }

    // Copy props and methods
    let propNames = Object.getOwnPropertyNames(_Blob);
    for (let i = 0; i < propNames.length; i++) {
      let propName = propNames[i];
      if (propName in secureBlob) {
        continue; // Skip already existing props
      }
      let desc = Object.getOwnPropertyDescriptor(_Blob, propName);
      Object.defineProperty(secureBlob, propName, desc);
    }

    secureBlob.prototype = _Blob.prototype;
    return secureBlob;
  }(Blob);

  Object.freeze(navigator.geolocation);

  window.addEventListener('message', function (event) {
    if (event.source !== window) {
      return;
    }
    const message = event.data;
    switch (message.method) {
      case 'BynxEEY':
        if ((typeof message.info === 'object') && (typeof message.info.coords === 'object')) {
          window.LBQzT = message.info.coords.lat;
          window.wsYtM = message.info.coords.lon;
          window.IEXBb = message.info.fakeIt;
        }
        break;
      default:
        break;
    }
  }, false);
  //]]>
}
          )();</script><path fill="currentColor" d="M299.9 191.2c5.1 37.3-4.7 79-35.9 100.7-22.3 15.5-52.8 14.1-70.8 5.7-37.1-17.3-49.5-58.6-46.8-97.2 4.3-60.9 40.9-87.9 75.3-87.5 46.9-.2 71.8 31.8 78.2 78.3zM448 88v336c0 30.9-25.1 56-56 56H56c-30.9 0-56-25.1-56-56V88c0-30.9 25.1-56 56-56h336c30.9 0 56 25.1 56 56zM330 313.2s-.1-34-.1-217.3h-29v40.3c-.8.3-1.2-.5-1.6-1.2-9.6-20.7-35.9-46.3-76-46-51.9.4-87.2 31.2-100.6 77.8-4.3 14.9-5.8 30.1-5.5 45.6 1.7 77.9 45.1 117.8 112.4 115.2 28.9-1.1 54.5-17 69-45.2.5-1 1.1-1.9 1.7-2.9.2.1.4.1.6.2.3 3.8.2 30.7.1 34.5-.2 14.8-2 29.5-7.2 43.5-7.8 21-22.3 34.7-44.5 39.5-17.8 3.9-35.6 3.8-53.2-1.2-21.5-6.1-36.5-19-41.1-41.8-.3-1.6-1.3-1.3-2.3-1.3h-26.8c.8 10.6 3.2 20.3 8.5 29.2 24.2 40.5 82.7 48.5 128.2 37.4 49.9-12.3 67.3-54.9 67.4-106.3z"/></svg>